<?xml version="1.0" encoding="iso-8859-1"?>
<!-- Generator: Adobe Illustrator 19.0.0, SVG Export Plug-In . SVG Version: 6.00 Build 0)  -->
<svg version="1.1" id="Layer_1" xmlns="http://www.w3.org/2000/svg" xmlns:xlink="http://www.w3.org/1999/xlink" x="0px" y="0px"
	 viewBox="0 0 300 300" style="enable-background:new 0 0 297 297;" xml:space="preserve">
<g>
	<g>
		<g>
			<g>
				<circle style="fill:#17AB93;" cx="148.5" cy="148.5" r="148.5"/>
			</g>
		</g>
	</g>
	<path style="fill:#0C7762;" d="M221.225,108.595L42.758,188.426l108.554,108.538c69.66-1.294,127.585-50.549,142.148-116.134
		L221.225,108.595z"/>
	<g>
		<path style="fill:#FFFFFF;" d="M231,198c18.225,0,33-14.775,33-33s-14.775-33-33-33c0-18.225-14.775-33-33-33
			c-6.56,0-12.668,1.922-17.806,5.223C175.088,82.321,155.457,66,132,66c-24.148,0-44.246,17.295-48.61,40.172
			c-13.778,1.496-24.609,12.808-25.348,26.8C43.662,136.534,33,149.519,33,165c0,18.225,14.775,33,33,33H231z"/>
	</g>
	<g>
		<path style="fill:#E3E5E4;" d="M231,132c0-18.225-14.775-33-33-33c-6.56,0-12.668,1.922-17.806,5.223
			c-3.927-16.844-16.451-30.378-32.694-35.735V198H231c18.225,0,33-14.775,33-33S249.225,132,231,132z"/>
	</g>
	<g>
		<path style="fill:#8A9093;" d="M170.073,142.146v-21.573c0-11.914-9.659-21.573-21.573-21.573s-21.573,9.659-21.573,21.573v21.573
			l7.191-7.191v-14.382c0-7.943,6.439-14.382,14.382-14.382c7.943,0,14.382,6.439,14.382,14.382v14.382L170.073,142.146z"/>
	</g>
	<g>
		<path style="fill:#8A9093;" d="M148.5,99c-0.338,0-0.666,0.035-1,0.051v7.191c0.332-0.023,0.662-0.051,1-0.051
			c7.943,0,14.382,6.439,14.382,14.382v14.382l7.191,7.191v-21.573C170.073,108.658,160.414,99,148.5,99z"/>
	</g>
	<g>
		<path style="fill:#32373B;" d="M128.365,190.469h40.27c4.607,0,8.341-3.735,8.341-8.341v-40.27c0-4.607-3.735-8.341-8.341-8.341
			h-40.27c-4.607,0-8.341,3.735-8.341,8.341v40.27C120.024,186.734,123.758,190.469,128.365,190.469z"/>
	</g>
	<g>
		<path style="fill:#292D30;" d="M168.635,133.517H147.5v56.952h21.135c4.607,0,8.341-3.735,8.341-8.341v-40.27
			C176.976,137.251,173.242,133.517,168.635,133.517z"/>
	</g>
	<g>
		<path style="fill:#FFFFFF;" d="M154.109,158.487c0-3.098-2.511-5.609-5.609-5.609s-5.609,2.511-5.609,5.609
			c0,1.77,0.822,3.347,2.103,4.375v4.74c0,1.936,1.57,3.506,3.506,3.506c1.936,0,3.506-1.57,3.506-3.506v-4.74
			C153.287,161.834,154.109,160.258,154.109,158.487z"/>
	</g>
	<g>
		<path style="fill:#E3E5E4;" d="M148.5,152.878c-0.342,0-0.675,0.036-1,0.094v17.973c0.319,0.095,0.65,0.162,1,0.162
			c1.936,0,3.506-1.569,3.506-3.506v-4.74c1.281-1.028,2.103-2.604,2.103-4.375C154.109,155.389,151.598,152.878,148.5,152.878z"/>
	</g>
</g>
<g>
</g>
<g>
</g>
<g>
</g>
<g>
</g>
<g>
</g>
<g>
</g>
<g>
</g>
<g>
</g>
<g>
</g>
<g>
</g>
<g>
</g>
<g>
</g>
<g>
</g>
<g>
</g>
<g>
</g>
</svg>
